<svg xmlns="http://www.w3.org/2000/svg" version="1.1" xmlns:xlink="http://www.w3.org/1999/xlink" xmlns:svgjs="http://svgjs.dev/svgjs" width="100%" height="100%" viewBox="0 0 1000 600"><rect width="1000" height="600" x="0" y="0" fill="#884488"/><g><circle r="166.66666666666666" cx="477.25748697916663" cy="499.4797771335608" fill="#E2V144" transform="matrix(0.40245871523456,0,0,0.40245871523455995,0,98.98002019384948)"/><path d="M349.0839657106586 437.69304324389543L349.0839657106586 437.69304324389543L349.0839657106586 561.2664090447718Q349.0839657106586 563.7212262959551 348.08069257321847 565.4929639642006Q347.0774194357783 567.2433553954793 345.39106671540014 568.0118199262845L345.39106671540014 568.0118199262845L345.39106671540014 568.3320134807866L365.52056817510413 568.3320134807866Q369.3628908291303 568.3320134807866 371.19866720827616 570.0183662011648Q373.05578982438885 571.704718921543 372.9063661656212 574.4797297272286L372.9063661656212 574.4797297272286L340.3106623172988 574.4797297272286L340.3106623172988 424.4797225614386L372.9063661656212 424.4797225614386Q373.05578982438885 427.2333871301574 371.19866720827616 428.9197398505355Q369.3628908291303 430.62743880788054 365.52056817510413 430.62743880788054L365.52056817510413 430.62743880788054L345.39106671540014 430.62743880788054L345.39106671540014 430.9262861254159Q347.0774194357783 431.6947506562211 348.08069257321847 433.3811033765993Q349.0839657106586 435.0674560969775 349.0839657106586 437.69304324389543ZM420.3803971798117 548.0317421253482L379.50235338836615 548.0317421253482Q378.8833125163286 548.0317421253482 378.28561788125785 547.81827975568Q377.6665770092203 547.5834711490451 377.34638345471814 546.6655829594722L377.34638345471814 546.6655829594722Q377.04753613718276 545.897118428667 377.43176840258536 544.8938452912267Q377.81600066798796 543.8905721537866 379.0540824120631 543.7411484950189L379.0540824120631 543.7411484950189Q383.96371691442994 542.9726839642136 387.65661590968847 540.5819054239307Q391.349514904947 538.2124731206145 391.49893856371466 534.8184214428913L391.49893856371466 534.8184214428913L395.6401085352763 455.66657476995135Q395.78953219404394 453.8307983908055 393.9537558148981 452.3579080400955Q392.1179794357522 450.90636392635224 389.72720089546925 449.90309078891204Q387.3364223551863 448.89981765147184 385.50064597604046 448.6009703339365L385.50064597604046 448.6009703339365Q383.49409970116005 448.13135312066663 383.96371691442994 446.29557674152073L383.96371691442994 446.29557674152073Q384.2625642319653 445.22826489318015 385.201798658505 445.05749499744564Q386.119686848078 444.9080713386779 386.73872772011555 444.9080713386779L386.73872772011555 444.9080713386779L425.9304187911829 444.9080713386779Q441.74798038359086 444.9080713386779 453.04013973903454 451.76021340502473Q464.353645331445 458.5910092344046 470.18116802338477 470.20336214435054Q476.0300369522914 481.7943688173296 475.11214876271845 496.2457712438615L475.11214876271845 496.2457712438615Q474.3436842319132 512.6823737083071 467.3421185067988 524.2947266182529Q460.3405527816843 535.9070795281988 448.2799288954354 541.9694108267735Q436.2193050091864 548.0317421253482 420.3803971798117 548.0317421253482L420.3803971798117 548.0317421253482ZM405.9503409902466 459.5088974239776L401.7878247817182 541.2863312438354L420.85001439308155 541.2863312438354Q427.1471542982912 541.2863312438354 434.2981436821733 538.8955527035525Q441.4491330660554 536.5047741632695 447.9810815779 531.2962923433673Q454.5130300897446 526.0664642864983 458.8890086679411 517.5279694997733Q463.2649872461376 509.0108209500153 464.03345177694285 496.8648121158991L464.03345177694285 496.8648121158991Q464.8019163077481 484.8682269405506 460.7247850470869 474.4299170637794Q456.66900002339264 463.97026095004134 447.83165791913234 457.5877360969645Q438.99431581487204 451.20521124388756 425.460801577913 451.20521124388756L425.460801577913 451.20521124388756L401.33955380541516 451.20521124388756Q404.2426420329016 451.37598113962207 405.18187645944136 452.976948912133Q406.0997646490143 454.5992629216107 406.0997646490143 456.4350393007566Q406.0997646490143 458.29216191686925 405.9503409902466 459.5088974239776L405.9503409902466 459.5088974239776ZM544.871651170261 548.501359338618L508.7538182224146 548.501359338618Q506.76861818450107 548.501359338618 506.6191945257334 546.4948130637376Q506.4484246299989 544.5096130258241 508.45497090487925 544.1894194713219L508.45497090487925 544.1894194713219Q512.4467172176732 543.7411484950189 515.4565366299937 542.6524904097114Q518.4450098053474 541.5851785613709 520.2167474735928 538.8101677556853Q521.9884851418383 536.0565031869664 522.2873324593736 530.6772514713298L522.2873324593736 530.6772514713298L526.4285024309352 452.293869329195L508.1561235873438 452.293869329195Q503.8441837200478 452.293869329195 501.0691729143622 452.5927166467304Q498.31550834564337 452.91291020123253 496.3943470186303 454.3644543149758Q494.47318569161723 455.815998428719 492.8508716821394 458.9752414998073Q491.24990390962853 462.1344845708955 489.09393397598046 467.96200726283524L489.09393397598046 467.96200726283524Q488.1760457864076 470.11797719648325 486.1694995115272 469.4989363244457L486.1694995115272 469.4989363244457Q484.9314177674521 469.0506653481427 484.9314177674521 467.34296639079764L484.9314177674521 467.34296639079764L486.31892317029485 449.98847573677926Q486.6391167247971 447.9819294618989 487.0233489901997 447.1494262201933Q487.40758125560234 446.29557674152073 488.00527589067303 445.99672942398536L488.00527589067303 445.99672942398536Q488.6243167627106 445.6765358694832 490.01182216555344 445.61249715858276Q491.3993275683962 445.5271122107155 495.62588248782504 445.44172726284825Q499.8524374072539 445.3776885519478 508.92458811814913 445.3776885519478L508.92458811814913 445.3776885519478L567.9255870944182 445.3776885519478Q572.3869506204821 445.3776885519478 574.0092646299597 445.5271122107155Q575.6102324024707 445.6765358694832 576.2292732745083 446.1461530827531L576.2292732745083 446.1461530827531Q577.1471614640811 446.5944240590561 577.1471614640811 449.3694348647417L577.1471614640811 449.3694348647417L577.1471614640811 467.19354273203Q577.1471614640811 467.66315994529987 576.9336990944131 468.34623952823785Q576.6988904877782 469.0506653481427 575.9304259569728 469.34951266567805L575.9304259569728 469.34951266567805Q575.1619614261676 469.6483599832134 574.3934968953624 469.4348976135453Q573.6250323645572 469.20008900691033 573.3048388100549 468.4316244761051L573.3048388100549 468.4316244761051Q571.4690624309092 462.58275554719853 569.9321333692986 459.27408881734266Q568.3952043076881 455.9867683244535 566.3246193219073 454.5138779737435Q564.2540343361266 453.06233386000025 560.9453676062707 452.6781015945976Q557.6367008764148 452.293869329195 552.4068728195458 452.293869329195L552.4068728195458 452.293869329195L537.0375822034409 452.293869329195L532.8964122318794 530.6772514713298Q532.5762186773771 536.0565031869664 534.1131477389877 538.8101677556853Q535.6500768005981 541.5851785613709 538.6598962129186 542.6524904097114Q541.6483693882724 543.7411484950189 545.3412683835309 544.1894194713219L545.3412683835309 544.1894194713219Q547.4972383171789 544.5096130258241 547.1130060517763 546.4948130637376Q546.7287737863737 548.501359338618 544.871651170261 548.501359338618L544.871651170261 548.501359338618ZM605.4309254451075 561.2664090447718L605.4309254451075 437.69304324389543Q605.4309254451075 435.0674560969775 606.5195835304148 433.3811033765993Q607.5868953787556 431.6947506562211 609.123824440366 430.9262861254159L609.123824440366 430.9262861254159L609.123824440366 430.62743880788054L588.994322980662 430.62743880788054Q585.1520003266357 430.62743880788054 583.2948777105232 428.9197398505355Q581.4591013313773 427.2333871301574 581.608524990145 424.4797225614386L581.608524990145 424.4797225614386L614.2042288384673 424.4797225614386L614.2042288384673 574.4797297272286L581.608524990145 574.4797297272286Q581.4591013313773 571.704718921543 583.2948777105232 570.0183662011648Q585.1520003266357 568.3320134807866 588.994322980662 568.3320134807866L588.994322980662 568.3320134807866L609.123824440366 568.3320134807866L609.123824440366 568.0118199262845Q607.5868953787556 567.2433553954793 606.5195835304148 565.4929639642006Q605.4309254451075 563.7212262959551 605.4309254451075 561.2664090447718L605.4309254451075 561.2664090447718Z " fill="#884488" transform="matrix(0.40245871523456,0,0,0.40245871523455995,0,98.98002019384948)"/><path d="M785.1648131042268 570.756933320446L730.3251807746171 570.756933320446Q729.4947111466493 570.756933320446 728.6928784024043 570.4705644832156Q727.8624087744363 570.1555587622622 727.4328555185908 568.9241727621718L727.4328555185908 568.9241727621718Q727.0319391464684 567.8932449481426 727.5474030534829 566.5473114131601Q728.0628669604976 565.2013778781775 729.7238062164336 565.0009196921162L729.7238062164336 565.0009196921162Q736.3102894727313 563.969991878087 741.2644703568161 560.7626609011072Q746.218651240901 557.5839668078504 746.4191094269622 553.0307022958881L746.4191094269622 553.0307022958881L751.9746648692308 446.84513745087895Q752.175123055292 444.382365450698 749.7123510551111 442.4064204738087Q747.2495790549301 440.4591123806424 744.0422480779504 439.11317884565983Q740.8349171009706 437.76724531067725 738.3721451007897 437.3663289385547L738.3721451007897 437.3663289385547Q735.6802780308245 436.736317496648 736.3102894727313 434.2735454964671L736.3102894727313 434.2735454964671Q736.7112058448538 432.8417013103154 737.9712287286673 432.61260624053114Q739.2026147287577 432.41214805446987 740.0330843567257 432.41214805446987L740.0330843567257 432.41214805446987L792.6104028722157 432.41214805446987Q813.8303337109837 432.41214805446987 828.9792452004685 441.6045877295637Q844.1567935736764 450.76839052093453 851.9746628300646 466.3468552662649Q859.8211689701759 481.8966831278722 858.5897829700854 501.2838534083661L858.5897829700854 501.2838534083661Q857.5588551560562 523.3342538751021 848.1659572949011 538.9127186204324Q838.7730594337461 554.4911833657628 822.593220130232 562.6240583431044Q806.4133808267179 570.756933320446 785.1648131042268 570.756933320446L785.1648131042268 570.756933320446ZM765.806279707456 451.999776521025L760.2220873814645 561.7076780639673L785.7948245461337 561.7076780639673Q794.2427052444286 561.7076780639673 803.8360612916449 558.5003470869875Q813.4294173388612 555.2930161100078 822.1923037581096 548.3056164815875Q830.9551901773578 541.2895799694443 836.8257513405798 529.8348264802307Q842.6963125038017 518.4087098747402 843.7272403178309 502.1143230363341L843.7272403178309 502.1143230363341Q844.7581681318601 486.0203943839891 839.2885233407607 472.01695824342556Q833.8475154333843 457.9848852191391 821.9918455720483 449.42245698595195Q810.1361757107122 440.86002875276483 791.9803914303088 440.86002875276483L791.9803914303088 440.86002875276483L759.6207128232808 440.86002875276483Q763.5153290096134 441.08912382254914 764.7753518934269 443.2368901017767Q766.0067378935173 445.41329326472726 766.0067378935173 447.8760652649081Q766.0067378935173 450.3674741488121 765.806279707456 451.999776521025L765.806279707456 451.999776521025ZM907.2438484155198 573.6492585764724L907.2438484155198 573.6492585764724Q898.5668726474405 573.6492585764724 890.7490033910524 568.8096252272796Q882.9024972509411 563.969991878087 877.9483163668563 554.6916415518241Q873.0227723664945 545.4132912255611 873.0227723664945 532.4121460153037L873.0227723664945 532.4121460153037Q873.0227723664945 520.8714818749212 877.2323942737804 509.8462816415532Q881.4706530647894 498.8210814081852 888.8876059490551 489.9436474540447Q896.3045588333209 481.0662134999043 906.0983730665985 475.71111624369695Q915.892187299876 470.3560189874896 927.2323932541973 470.3560189874896L927.2323932541973 470.3560189874896Q938.77305739458 470.3560189874896 946.5050159997991 474.1647245226531Q954.2369746050182 477.97343005781664 957.3297580471058 481.29530856968853L957.3297580471058 481.29530856968853L954.8669860469249 555.0925579239465Q954.6665278608637 557.5839668078504 955.5829081400008 559.731733087078Q956.5279253028609 561.9081362500285 959.8211669310098 561.9081362500285L959.8211669310098 561.9081362500285Q961.8830225590682 561.9081362500285 965.061716652325 560.0467388080314Q968.2690476293047 558.1853413660342 970.7318196294856 554.8920997378852L970.7318196294856 554.8920997378852Q971.7627474435149 553.4602555517336 973.3091391645587 553.8611719238561Q974.8555308856025 554.2620882959785 974.45461451348 556.3239439240369L974.45461451348 556.3239439240369Q973.2232285133896 562.7386058779965 967.5531255362289 568.1796137853729Q961.8830225590682 573.6492585764724 954.2369746050182 573.6492585764724L954.2369746050182 573.6492585764724Q948.0514077208429 573.6492585764724 944.9586242787552 569.6400948552476Q941.8658408366675 565.6022942502999 942.0949359064518 560.6767502499381L942.0949359064518 560.6767502499381L942.8967686506968 539.2277243413857Q940.6344548365771 547.0455935977741 935.6802739524924 555.0925579239465Q930.7547299521304 563.139522250119 923.538235253926 568.4087088551572Q916.3217405557215 573.6492585764724 907.2438484155198 573.6492585764724ZM888.0571363210872 532.612604201365L888.0571363210872 532.612604201365Q888.0571363210872 540.258652155415 890.5485452049911 547.3605993187274Q893.011317205172 554.4911833657628 897.9654980892568 559.0158109940021Q902.9196789733417 563.5404386222415 909.9070786017619 563.5404386222415L909.9070786017619 563.5404386222415Q916.3217405557215 563.5404386222415 922.0777541840513 559.0158109940021Q927.862404696104 554.4911833657628 932.5015798592356 547.1601411326662Q937.140755022367 539.8290988995695 940.0330802783934 531.3812182012746Q942.8967686506968 522.9333375029796 943.3263219065423 515.0868313628683L943.3263219065423 515.0868313628683L944.1567915345104 496.75922578012677Q944.3572497205715 493.4373472682548 944.0422439996182 491.3754916401964Q943.7272382786648 489.313636012138 942.6963104646356 487.68133363992507L942.6963104646356 487.68133363992507Q940.4339966505158 483.95853875593065 935.6802739524924 481.29530856968853Q930.9551881381917 478.6034414997234 924.9700794400777 478.6034414997234L924.9700794400777 478.6034414997234Q916.3217405557215 478.6034414997234 909.3916146947473 483.75808056986943Q902.4901257174962 488.9127196400155 897.7650399031957 497.16014215224925Q893.011317205172 505.40756466448295 890.5485452049911 514.8004625256381Q888.0571363210872 524.16472350307 888.0571363210872 532.612604201365ZM995.4740871661868 570.756933320446L995.4740871661868 570.756933320446L999.1968820501812 489.1131778260767Q998.165954236152 488.08225001204755 995.0731707940643 490.144105640106L995.0731707940643 490.144105640106Q987.0262064678918 494.46827508228404 981.270192839562 488.511803267893L981.270192839562 488.511803267893Q984.7638926537721 486.22085257005034 989.718073537857 482.8417002907323Q994.672254421942 479.4339111276913 999.082334515289 476.54158587166495Q1003.5210514923592 473.6492606156385 1004.981532562234 473.24834424351604L1004.981532562234 473.24834424351604Q1007.8452209345373 472.21741642948683 1009.8211659114268 473.33425489468516Q1011.768474004593 474.47973024360647 1011.5680158185318 477.1715973135717L1011.5680158185318 477.1715973135717L1009.9070765625959 506.23803429245095Q1013.6298714465902 497.16014215224925 1019.8154383307655 489.1131778260767Q1026.0010052149407 481.0662134999043 1034.2484277271744 476.0261219646503Q1042.4958502394084 470.98603042939635 1052.4042120075778 470.98603042939635L1052.4042120075778 470.98603042939635Q1056.9288396358172 470.98603042939635 1062.0834787059632 473.1337967086239Q1067.2381177761094 475.31019987157447 1070.7318175903195 480.6652971277818Q1074.2541542882527 486.0203943839891 1073.6241428463459 496.12921433822L1073.6241428463459 496.12921433822L1070.1304430321359 553.8611719238561Q1069.9299848460746 557.1544135520049 1070.8463651252116 559.5312749010168Q1071.7627454043486 561.9081362500285 1075.0846239162206 561.9081362500285L1075.0846239162206 561.9081362500285Q1077.3469377303404 561.9081362500285 1080.0101679165825 559.8462806219701Q1082.7020349865477 557.7844249939117 1084.1338791726994 554.8920997378852L1084.1338791726994 554.8920997378852Q1084.9643488006673 553.4602555517336 1086.510740521711 553.8611719238561Q1088.057132242755 554.2620882959785 1087.6562158706324 556.3239439240369L1087.6562158706324 556.3239439240369Q1086.424829870542 562.3090526221511 1081.5565596376264 567.4636916922971Q1076.7169262884336 572.6183307624432 1069.500431590229 572.6183307624432L1069.500431590229 572.6183307624432Q1063.3148647060539 572.6183307624432 1060.2220812639662 568.6091670412185Q1057.1292978218785 564.5713664362706 1057.3297560079397 559.6458224359089L1057.3297560079397 559.6458224359089L1060.8520927058728 496.12921433822Q1061.2530090779953 490.144105640106 1057.444303542832 486.4499476398346Q1053.6355980076682 482.7271527558402 1047.2495729374318 482.526694569779L1047.2495729374318 482.526694569779Q1037.1407529832009 482.32623638371774 1027.5473969359846 490.7741170820127Q1017.9540408887683 499.2219977803077 1011.768474004593 517.3777820607111L1011.768474004593 517.3777820607111Q1010.7375461905638 520.4705655027988 1010.021624097488 524.3651816891313Q1009.3057020044121 528.2884347591869 1009.1052438183508 533.0421574572106L1009.1052438183508 533.0421574572106L1008.0743160043216 559.2162691800634Q1007.8452209345373 566.2323056922066 1005.2679013994643 569.0100834133409Q1002.6905818643913 571.7878611344752 995.4740871661868 570.756933320446ZM1108.6756885233392 434.07308731040587L1108.6756885233392 434.07308731040587Q1108.0743139651556 432.01123168234744 1110.5370859653365 431.0662145194873Q1112.9998579655173 430.14983424035023 1116.9231110355731 430.77984568225696Q1120.8463641056287 431.3812202404407 1124.569158989623 433.44307586849914Q1128.2633169898945 435.50493149655756 1129.9242562458303 439.2277263805519L1129.9242562458303 439.2277263805519Q1131.5565586180433 443.15097945060757 1128.6928702457399 447.16014317183226Q1125.8005449897134 451.169306893057 1121.8772919196579 452.2002347070862L1121.8772919196579 452.2002347070862Q1120.0158944776606 452.83024614899296 1116.4076471285584 452.2002347070862Q1112.799399779456 451.59886014890253 1112.3984834073335 448.0765234509694L1112.3984834073335 448.0765234509694Q1112.3984834073335 446.4442210787564 1111.5680137793656 442.52096800870083Q1110.7375441513977 438.5977149386452 1108.6756885233392 434.07308731040587ZM1111.9689301514882 560.8772084359994L1111.9689301514882 560.8772084359994L1116.3217364773893 487.4808754538638Q1116.092641407605 487.25178038407955 1115.376719314529 487.3663279189717Q1114.6607972214533 487.4808754538638 1112.598941593395 488.511803267893L1112.598941593395 488.511803267893Q1104.351519081161 492.83597271007113 1098.9964218249538 486.85086401195707L1098.9964218249538 486.85086401195707Q1102.2896634531028 484.58855019783744 1107.2438443371875 481.1807610347964Q1112.1980252212725 477.7729718717554 1116.6081053146195 474.88064661572895Q1121.0468222916898 472.01695824342556 1122.5073033615645 471.5874049875801L1122.5073033615645 471.5874049875801Q1125.3709917338679 470.5564771735509 1127.4328473619262 471.5874049875801Q1129.4947029899847 472.6183328016093 1129.2942448039234 475.31019987157447L1129.2942448039234 475.31019987157447L1124.7696171756843 555.2930161100078Q1124.569158989623 557.7844249939117 1125.48553926876 559.9321912731392Q1126.4019195478973 562.1085944360898 1129.723798059769 562.1085944360898L1129.723798059769 562.1085944360898Q1131.7856536878276 562.1085944360898 1134.9643477810841 560.2471969940926Q1138.171678758064 558.3857995520954 1140.6344507582448 555.0925579239465L1140.6344507582448 555.0925579239465Q1141.6653785722742 553.6607137377948 1143.211770293318 554.0616301099174Q1144.7581620143617 554.4911833657628 1144.3572456422394 556.5530389938212L1144.3572456422394 556.5530389938212Q1143.125859642149 562.9390640640578 1137.4557566649883 568.4087088551572Q1131.7856536878276 573.8497167625336 1124.1396057337774 573.8497167625336L1124.1396057337774 573.8497167625336Q1117.954038849602 573.8497167625336 1114.8612554075146 569.8405530413089Q1111.768471965427 565.8313893200842 1111.9689301514882 560.8772084359994ZM1203.5210474140272 562.9390640640578L1203.5210474140272 562.9390640640578Q1211.7684699262609 563.5404386222415 1218.2690425313895 560.8772084359994Q1224.769615136518 558.1853413660342 1229.2942427647574 554.0616301099174Q1233.8475072767199 549.9379188538005 1235.9093629047782 546.6446772256515L1235.9093629047782 546.6446772256515Q1236.9402907188073 544.7832797836544 1239.288515184096 544.382363411532Q1241.665376533108 543.9528101556864 1243.326315789044 545.6137494116224L1243.326315789044 545.6137494116224Q1242.6963043471374 547.6756050396807 1240.2335323469565 552.114322016751Q1237.7421234630524 556.5530389938212 1232.9024901138596 561.2781248081218Q1228.062856764667 566.0318475061454 1220.6459038804012 569.4396366691865Q1213.2289509961356 572.8187889485044 1203.1201310419046 572.8187889485044L1203.1201310419046 572.8187889485044Q1189.918527645586 572.8187889485044 1179.4087913192327 566.8623171341134Q1168.8990549928792 560.8772084359994 1162.9998569459344 550.0524663886926Q1157.1292957827122 539.2277243413857 1157.558849038558 525.3961095031605L1157.558849038558 525.3961095031605Q1157.9597654106803 512.223142990565 1163.1144044808264 501.6847697804886Q1168.2690435509726 491.17503345413513 1176.316007877145 483.8726281047616Q1184.3629722033174 476.54158587166495 1194.042238901703 472.7328803365014Q1203.7215056000882 468.9241748013379 1212.9998559263513 468.9241748013379L1212.9998559263513 468.9241748013379Q1221.8772898804918 468.9241748013379 1227.5473928576523 471.7019525224722Q1233.217495834813 474.47973024360647 1236.510737462962 478.4029833136621Q1239.8039790911107 482.32623638371774 1241.1499126260933 486.1349419188812Q1242.4958461610759 489.9436474540447 1242.4958461610759 492.4064194542256L1242.4958461610759 492.4064194542256Q1242.4958461610759 500.4533837803981 1237.455754625822 507.26896210648016Q1232.3870262068451 514.0559035488391 1224.0536930434423 519.010084432924Q1215.6917229963165 523.9642653170088 1205.3824448560242 526.5415848520819Q1195.073166715732 529.1189043871549 1184.3629722033174 529.1189043871549L1184.3629722033174 529.1189043871549Q1180.6401773193231 529.1189043871549 1179.4087913192327 526.9425012242043Q1178.177405319142 524.7947349449769 1178.7787798773259 522.9333375029796L1178.7787798773259 522.9333375029796Q1186.4248278313758 522.9333375029796 1194.9586191808398 520.6710236888599Q1203.5210474140272 518.4087098747402 1211.167095368077 514.3709092697925Q1218.7845064384042 510.3617455485678 1223.6241397875967 505.2930171295908Q1228.4637731367893 500.2529255943369 1228.4637731367893 494.89782833812956L1228.4637731367893 494.89782833812956Q1228.4637731367893 487.0513221980183 1223.6241397875967 482.2116888488256Q1218.7845064384042 477.3720554996329 1210.9380002982928 477.1715973135717L1210.9380002982928 477.1715973135717Q1200.4282639719395 476.94250224378743 1192.0949308085364 483.35716419774695Q1183.7329607614106 489.7431892679835 1178.6928692261567 500.13837805944473Q1173.6241408071799 510.562203734629 1173.022766248996 522.7328793169183L1173.022766248996 522.7328793169183Q1172.5932129931507 533.2426156432717 1176.0010021561916 542.1200495974122Q1179.4087913192327 550.9688466678297 1186.4248278313758 556.5530389938212Q1193.4122274597962 562.1085944360898 1203.5210474140272 562.9390640640578ZM1268.2690415118063 561.4785829941831L1268.2690415118063 561.4785829941831L1274.6550665820428 441.69049838073283Q1274.4546083959817 441.4900401946716 1273.7386863029058 441.6045877295637Q1273.02276420983 441.69049838073283 1270.9609085817715 442.72142619476205L1270.9609085817715 442.72142619476205Q1262.7134860695378 447.04559563694016 1257.3297519296075 441.08912382254914L1257.3297519296075 441.08912382254914Q1260.6516304414795 438.7981731247064 1265.5771744418412 435.41902084538845Q1270.5313553259261 432.01123168234744 1274.9700723029964 429.118906426321Q1279.4087892800665 426.2265811702946 1280.8406334662182 425.82566479817217L1280.8406334662182 425.82566479817217Q1283.7329587222448 424.7947369841429 1285.794814350303 425.82566479817217Q1287.8566699783614 426.8565926122013 1287.6562117923004 429.5198227984435L1287.6562117923004 429.5198227984435L1281.0410916522794 555.9230275519145Q1280.8406334662182 558.3857995520954 1281.7856506290782 560.5622027150459Q1282.7020309082154 562.7386058779965 1285.9952725363642 562.7386058779965L1285.9952725363642 562.7386058779965Q1288.0571281644227 562.7386058779965 1291.3503697925717 560.8772084359994Q1294.6722483044437 559.0158109940021 1297.1350203046245 555.7225693658532L1297.1350203046245 555.7225693658532Q1298.1659481186537 554.2620882959785 1299.7123398396975 554.8920997378852Q1301.2587315607411 555.5221111797921 1300.8578151886188 557.5839668078504L1300.8578151886188 557.5839668078504Q1299.397334118744 564.3709082502095 1293.7272311415836 569.4396366691865Q1288.0571281644227 574.4797282044403 1280.4397170940956 574.4797282044403L1280.4397170940956 574.4797282044403Q1274.2541502099205 574.4797282044403 1271.1613667678328 570.4705644832156Q1268.0685833257453 566.4327638782679 1268.2690415118063 561.4785829941831ZM1457.3297478512752 571.3869447623528L1408.8761405919022 571.3869447623528Q1406.2129104056598 571.3869447623528 1406.0124522195988 568.6950776923875Q1405.7833571498145 566.0318475061454 1408.4752242197796 565.6022942502999L1408.4752242197796 565.6022942502999Q1413.8303214759871 565.0009196921162 1417.8681220809349 563.5404386222415Q1421.8772858021593 562.1085944360898 1424.2541471511713 558.3857995520954Q1426.631008500183 554.6916415518241 1427.0319248723056 547.4751468536195L1427.0319248723056 547.4751468536195L1432.5874803145741 442.32050982263956L1408.074307847657 442.32050982263956Q1402.2896573356045 442.32050982263956 1398.56686245161 442.72142619476205Q1394.8727044513387 443.15097945060757 1392.2953849162657 445.09828754377384Q1389.7180653811924 447.04559563694016 1387.541662218242 451.28385442794917Q1385.3938959390143 455.5221132189581 1382.5015706829881 463.33998247534635L1382.5015706829881 463.33998247534635Q1381.2701846828977 466.23230773137277 1378.5783176129326 465.40183810340477L1378.5783176129326 465.40183810340477Q1376.9173783569963 464.8004635452211 1376.9173783569963 462.50951284737835L1376.9173783569963 462.50951284737835L1378.7787757989936 439.2277263805519Q1379.2083290548394 436.5358593105868 1379.7237929618536 435.41902084538845Q1380.2392568688683 434.2735454964671 1381.0410896131134 433.8726291243446L1381.0410896131134 433.8726291243446Q1381.8715592410813 433.44307586849914 1383.7329566830786 433.35716521733Q1385.5943541250756 433.24261768243787 1391.2644571022365 433.1280701475457Q1396.9345600793972 433.04215949637666 1409.1052356616865 433.04215949637666L1409.1052356616865 433.04215949637666L1488.257582272152 433.04215949637666Q1494.2426909702658 433.04215949637666 1496.4190941332163 433.24261768243787Q1498.566860412444 433.44307586849914 1499.3973300404118 434.07308731040587L1499.3973300404118 434.07308731040587Q1500.6287160405022 434.67446186858956 1500.6287160405022 438.397256752584L1500.6287160405022 438.397256752584L1500.6287160405022 462.30905466131713Q1500.6287160405022 462.9390661032239 1500.3423472032719 463.855446382361Q1500.0273414823187 464.8004635452211 1498.9964136682893 465.20137991734356L1498.9964136682893 465.20137991734356Q1497.9654858542601 465.60229628946604 1496.934558040231 465.3159274522357Q1495.9036302262016 465.00092173128235 1495.4740769703562 463.96999391725313L1495.4740769703562 463.96999391725313Q1493.0113049701754 456.12348777714186 1490.949449342117 451.68477080007165Q1488.8875937140583 447.2746907067244 1486.1098159929243 445.2987457298351Q1483.3320382717898 443.3514376366688 1478.8933212947195 442.8359737296542Q1474.4546043176497 442.32050982263956 1467.4385678055062 442.32050982263956L1467.4385678055062 442.32050982263956L1446.820011524922 442.32050982263956L1441.2644560826534 547.4751468536195Q1440.8349028268078 554.6916415518241 1442.8967584548664 558.3857995520954Q1444.9586140829247 562.1085944360898 1448.9964146878724 563.5404386222415Q1453.0055784090973 565.0009196921162 1457.959759293182 565.6022942502999L1457.959759293182 565.6022942502999Q1460.8520845492085 566.0318475061454 1460.3366206421938 568.6950776923875Q1459.821156735179 571.3869447623528 1457.3297478512752 571.3869447623528L1457.3297478512752 571.3869447623528ZM1544.3572374855748 573.6492585764724L1544.3572374855748 573.6492585764724Q1535.6802617174958 573.6492585764724 1527.8623924611074 568.8096252272796Q1520.0158863209963 563.969991878087 1515.0617054369113 554.6916415518241Q1510.1361614365496 545.4132912255611 1510.1361614365496 532.4121460153037L1510.1361614365496 532.4121460153037Q1510.1361614365496 520.8714818749212 1514.3457833438356 509.8462816415532Q1518.5840421348444 498.8210814081852 1526.0009950191102 489.9436474540447Q1533.417947903376 481.0662134999043 1543.2117621366535 475.71111624369695Q1553.005576369931 470.3560189874896 1564.3457823242525 470.3560189874896L1564.3457823242525 470.3560189874896Q1575.886446464635 470.3560189874896 1583.6184050698541 474.1647245226531Q1591.3503636750734 477.97343005781664 1594.443147117161 481.29530856968853L1594.443147117161 481.29530856968853L1591.98037511698 555.0925579239465Q1591.7799169309187 557.5839668078504 1592.696297210056 559.731733087078Q1593.641314372916 561.9081362500285 1596.9345560010647 561.9081362500285L1596.9345560010647 561.9081362500285Q1598.996411629123 561.9081362500285 1602.17510572238 560.0467388080314Q1605.38243669936 558.1853413660342 1607.8452086995408 554.8920997378852L1607.8452086995408 554.8920997378852Q1608.8761365135701 553.4602555517336 1610.4225282346138 553.8611719238561Q1611.9689199556576 554.2620882959785 1611.5680035835353 556.3239439240369L1611.5680035835353 556.3239439240369Q1610.3366175834446 562.7386058779965 1604.666514606284 568.1796137853729Q1598.996411629123 573.6492585764724 1591.3503636750734 573.6492585764724L1591.3503636750734 573.6492585764724Q1585.164796790898 573.6492585764724 1582.0720133488103 569.6400948552476Q1578.9792299067226 565.6022942502999 1579.208324976507 560.6767502499381L1579.208324976507 560.6767502499381L1580.010157720752 539.2277243413857Q1577.7478439066322 547.0455935977741 1572.7936630225474 555.0925579239465Q1567.8681190221855 563.139522250119 1560.6516243239812 568.4087088551572Q1553.4351296257764 573.6492585764724 1544.3572374855748 573.6492585764724ZM1525.1705253911423 532.612604201365L1525.1705253911423 532.612604201365Q1525.1705253911423 540.258652155415 1527.6619342750464 547.3605993187274Q1530.1247062752273 554.4911833657628 1535.0788871593118 559.0158109940021Q1540.0330680433967 563.5404386222415 1547.0204676718172 563.5404386222415L1547.0204676718172 563.5404386222415Q1553.4351296257764 563.5404386222415 1559.1911432541065 559.0158109940021Q1564.9757937661593 554.4911833657628 1569.6149689292906 547.1601411326662Q1574.254144092422 539.8290988995695 1577.1464693484484 531.3812182012746Q1580.010157720752 522.9333375029796 1580.4397109765973 515.0868313628683L1580.4397109765973 515.0868313628683L1581.2701806045652 496.75922578012677Q1581.4706387906267 493.4373472682548 1581.1556330696733 491.3754916401964Q1580.8406273487199 489.313636012138 1579.8096995346907 487.68133363992507L1579.8096995346907 487.68133363992507Q1577.5473857205711 483.95853875593065 1572.7936630225474 481.29530856968853Q1568.068577208247 478.6034414997234 1562.0834685101327 478.6034414997234L1562.0834685101327 478.6034414997234Q1553.4351296257764 478.6034414997234 1546.5050037648025 483.75808056986943Q1539.6035147875514 488.9127196400155 1534.8784289732507 497.16014215224925Q1530.1247062752273 505.40756466448295 1527.6619342750464 514.8004625256381Q1525.1705253911423 524.16472350307 1525.1705253911423 532.612604201365ZM1632.5874762362419 573.6492585764724L1632.5874762362419 573.6492585764724L1637.3411989342655 442.72142619476205Q1637.1407407482043 442.72142619476205 1637.0261932133121 442.635515543593Q1636.940282562143 442.52096800870083 1636.711187492359 442.52096800870083L1636.711187492359 442.52096800870083Q1636.3102711202364 442.52096800870083 1635.5943490271604 442.72142619476205Q1634.8784269340847 442.92188438082326 1633.4179458642097 443.75235400879126L1633.4179458642097 443.75235400879126Q1630.325162422122 445.61375145078847 1627.2323789800344 445.61375145078847L1627.2323789800344 445.61375145078847Q1623.3091259099788 445.61375145078847 1619.815426095769 442.12005163657835L1619.815426095769 442.12005163657835Q1623.3091259099788 439.8291009387357 1628.2633067940637 436.44994865941766Q1633.2174876781487 433.04215949637666 1637.5416571203268 430.14983424035023Q1641.865826562505 427.25750898432386 1643.5267658184407 426.8565926122013L1643.5267658184407 426.8565926122013Q1644.1567772603476 426.6561344261401 1644.7581518185311 426.541586891248Q1645.388163260438 426.42703935635586 1645.9895378186216 426.42703935635586L1645.9895378186216 426.42703935635586Q1650.342344144523 426.42703935635586 1650.342344144523 430.77984568225696L1650.342344144523 430.77984568225696L1647.4500188884963 509.1303595484774Q1653.0055743307648 489.5427310819223 1664.030774564133 480.35029140682843Q1675.084611681224 471.1864886154576 1686.4248176355454 471.1864886154576L1686.4248176355454 471.1864886154576Q1699.1968677760183 471.1864886154576 1707.0433739161297 478.8038996857846Q1714.8612431725178 486.4499476398346 1717.9540266146055 498.59198633840094Q1721.0468100566932 510.7626619206903 1719.4145076844802 524.16472350307L1719.4145076844802 524.16472350307Q1718.1544848006668 535.934482713237 1712.7134768932904 546.129213318637Q1707.243832102191 556.3239439240369 1699.1968677760183 563.3399804361802Q1691.1499034498459 570.3560169483235 1681.6710949375217 572.8187889485044L1681.6710949375217 572.8187889485044Q1677.9483000535272 573.6492585764724 1672.7936609833814 573.6492585764724Q1667.6390219132352 573.6492585764724 1662.484382843089 572.0169562042595Q1657.329743772943 570.3560169483235 1653.4351275866106 566.4327638782679L1653.4351275866106 566.4327638782679Q1651.7741883306744 564.800461506055 1651.3732719585519 562.6240583431044Q1650.9437187027065 560.4476551801538 1652.8051161447038 558.3857995520954L1652.8051161447038 558.3857995520954Q1658.3606715869723 563.969991878087 1666.5221834480371 565.5163835991308Q1674.6550584253785 567.0627753201746 1682.3011063794283 562.5095108082123L1682.3011063794283 562.5095108082123Q1690.319433821878 557.7844249939117 1696.5050007060531 548.70653285371Q1702.6905675902285 539.6286407135083 1704.5519650322258 527.0570487590965L1704.5519650322258 527.0570487590965Q1706.2129042881616 515.5163846187138 1704.2369593112724 505.2930171295908Q1702.289651218106 495.0982865241908 1696.934553961899 488.7122614539543Q1691.5794567056914 482.32623638371774 1682.9024809376122 482.32623638371774L1682.9024809376122 482.32623638371774Q1673.8245887974103 482.32623638371774 1664.775333540932 490.7741170820127Q1655.69744140073 499.2219977803077 1650.342344144523 518.4087098747402L1650.342344144523 518.4087098747402Q1649.0823212607093 523.1337956890409 1648.3663991676335 526.9425012242043Q1647.6504770745576 530.7798436430909 1647.2495607024352 535.3044712713302Q1646.8200074465897 539.8290988995695 1646.4190910744671 547.2746886675583L1646.4190910744671 547.2746886675583L1645.5886214464992 561.9081362500285Q1645.388163260438 568.0937031342039 1642.6962961904728 571.2723972274606Q1640.0330660042307 574.4797282044403 1632.5874762362419 573.6492585764724ZM1779.2083208981744 572.8187889485044L1779.2083208981744 572.8187889485044Q1767.0376453158851 572.8187889485044 1757.0433728965468 566.3468532270988Q1747.0204635934847 559.8462806219701 1741.6653663372772 548.0765214118032Q1736.3102690810701 536.3353990853594 1737.5416550811606 521.0719400609823L1737.5416550811606 521.0719400609823Q1739.0021361510353 505.80848103660543 1745.9036251282864 494.2678168962228Q1752.8051141055375 482.7271527558402 1763.7444036877364 476.2265801507116Q1774.6550563862124 469.7260075455829 1787.856659782531 469.7260075455829L1787.856659782531 469.7260075455829Q1800.0273353648204 469.7260075455829 1810.0216077841592 476.2265801507116Q1820.0158802034975 482.7271527558402 1825.6859831806587 494.2678168962228Q1831.3560861578194 505.80848103660543 1829.9242419716675 521.0719400609823L1829.9242419716675 521.0719400609823Q1828.692855971577 536.3353990853594 1821.5622719245416 548.0765214118032Q1814.460324761229 559.8462806219701 1803.4351245278613 566.3468532270988Q1792.3812874107703 572.8187889485044 1779.2083208981744 572.8187889485044ZM1751.7741862915082 521.0719400609823L1751.7741862915082 521.0719400609823Q1751.373269919386 533.0421574572106 1754.981517268488 543.0364298765493Q1758.5897646175904 553.0307022958881 1765.4912535948415 558.9012634591099Q1772.3927425720926 564.800461506055 1781.6710928983557 564.800461506055L1781.6710928983557 564.800461506055Q1790.9494432246188 564.800461506055 1798.3663961088841 558.9012634591099Q1805.78334899315 553.0307022958881 1810.4225241562817 543.0364298765493Q1815.061699319413 533.0421574572106 1815.4912525752584 521.0719400609823L1815.4912525752584 521.0719400609823Q1816.092627133442 509.1303595484774 1812.3984691331707 499.3365453151998Q1808.6756742491766 489.5427310819223 1801.8887328068176 483.6435330349773Q1795.0731544807354 477.7729718717554 1785.7948041544723 477.7729718717554L1785.7948041544723 477.7729718717554Q1776.5164538282097 477.7729718717554 1768.9849534090517 483.6435330349773Q1761.4534529898938 489.5427310819223 1756.9288253616546 499.3365453151998Q1752.404197733415 509.1303595484774 1751.7741862915082 521.0719400609823ZM1880.8406212312216 573.6492585764724L1880.8406212312216 573.6492585764724Q1872.1922823468653 573.6492585764724 1864.3457762067542 568.8096252272796Q1856.5279069503658 563.969991878087 1851.5737260662809 554.6916415518241Q1846.6195451821964 545.4132912255611 1846.6195451821964 532.4121460153037L1846.6195451821964 532.4121460153037Q1846.6195451821964 520.8714818749212 1850.8578039732051 509.8462816415532Q1855.067425880491 498.8210814081852 1862.484378764757 489.9436474540447Q1869.9299685327455 481.0662134999043 1879.7237827660233 475.71111624369695Q1889.517596999301 470.3560189874896 1900.857802953622 470.3560189874896L1900.857802953622 470.3560189874896Q1912.398467094005 470.3560189874896 1920.130425699224 474.1647245226531Q1927.862384304443 477.97343005781664 1930.9551677465306 481.29530856968853L1930.9551677465306 481.29530856968853L1928.4637588626265 555.0925579239465Q1928.2633006765654 557.5839668078504 1929.2083178394255 559.731733087078Q1930.1246981185627 561.9081362500285 1933.4179397467115 561.9081362500285L1933.4179397467115 561.9081362500285Q1935.4797953747698 561.9081362500285 1938.6871263517496 560.0467388080314Q1941.8658204450062 558.1853413660342 1944.3572293289103 554.8920997378852L1944.3572293289103 554.8920997378852Q1945.3881571429397 553.4602555517336 1946.9345488639833 553.8611719238561Q1948.4809405850274 554.2620882959785 1948.051387329182 556.3239439240369L1948.051387329182 556.3239439240369Q1946.8200013290916 562.7386058779965 1941.1498983519305 568.1796137853729Q1935.4797953747698 573.6492585764724 1927.862384304443 573.6492585764724L1927.862384304443 573.6492585764724Q1921.6768174202675 573.6492585764724 1918.5840339781798 569.6400948552476Q1915.4912505360926 565.6022942502999 1915.6917087221536 560.6767502499381L1915.6917087221536 560.6767502499381L1916.5221783501215 539.2277243413857Q1914.2598645360022 547.0455935977741 1909.3056836519172 555.0925579239465Q1904.3515027678322 563.139522250119 1897.135008069628 568.4087088551572Q1889.9185133714232 573.6492585764724 1880.8406212312216 573.6492585764724ZM1861.6825460205118 532.612604201365L1861.6825460205118 532.612604201365Q1861.6825460205118 540.258652155415 1864.1453180206927 547.3605993187274Q1866.608090020874 554.4911833657628 1871.5622709049585 559.0158109940021Q1876.5164517890435 563.5404386222415 1883.5324883011867 563.5404386222415L1883.5324883011867 563.5404386222415Q1889.9185133714232 563.5404386222415 1895.703163883476 559.0158109940021Q1901.459177511806 554.4911833657628 1906.0983526749374 547.1601411326662Q1910.7375278380687 539.8290988995695 1913.6298530940953 531.3812182012746Q1916.5221783501215 522.9333375029796 1916.923094722244 515.0868313628683L1916.923094722244 515.0868313628683L1917.753564350212 496.75922578012677Q1917.9540225362734 493.4373472682548 1917.6390168153198 491.3754916401964Q1917.3526479780894 489.313636012138 1916.3217201640605 487.68133363992507L1916.3217201640605 487.68133363992507Q1914.0307694662179 483.95853875593065 1909.3056836519172 481.29530856968853Q1904.5519609538937 478.6034414997234 1898.5668522557794 478.6034414997234L1898.5668522557794 478.6034414997234Q1889.9185133714232 478.6034414997234 1883.017024394172 483.75808056986943Q1876.115535416921 488.9127196400155 1871.3618127188975 497.16014215224925Q1866.608090020874 505.40756466448295 1864.1453180206927 514.8004625256381Q1861.6825460205118 524.16472350307 1861.6825460205118 532.612604201365ZM1994.4431389604965 572.8187889485044L1994.4431389604965 572.8187889485044Q1986.4248115180471 572.8187889485044 1978.0628414709213 568.0937031342039Q1969.7008714237954 563.3399804361802 1964.0307684466347 553.9757194587482Q1958.3606654694736 544.5828215975931 1958.3606654694736 530.7798436430909L1958.3606654694736 530.7798436430909Q1958.3606654694736 520.2414704330145 1961.968912818576 509.41672838570764Q1965.5771601676784 498.59198633840094 1972.3927384937606 489.42818354703013Q1979.2083168198428 480.2643807556593 1988.887583518228 474.7947359645599Q1998.5668502166136 469.3250911734604 2010.7375257989024 469.5255493595217L2010.7375257989024 469.5255493595217Q2016.9230926830778 469.7260075455829 2020.9608932880255 471.90241070853347Q2024.9700570092505 474.07881387148404 2026.8314544512477 476.14066949954247L2026.8314544512477 476.14066949954247Q2028.4637568234607 477.97343005781664 2028.893310079306 479.94937503470595Q2029.2942264514286 481.8966831278722 2026.401901195402 483.55762238380817L2026.401901195402 483.55762238380817Q2024.1395873812826 480.46483894172053 2019.9299654739966 479.00435787184585Q2015.6917066829878 477.57251368569416 2011.5679954268703 477.57251368569416L2011.5679954268703 477.57251368569416Q2001.4591754726398 477.57251368569416 1994.2426807744355 482.92761094190143Q1987.0261860762307 488.28270819810876 1982.3870109130994 496.4442200591734Q1977.747835749968 504.57709503651495 1975.6000694707404 513.3399814557633Q1973.4236663077895 522.1028678750116 1973.4236663077895 528.9184462010937L1973.4236663077895 528.9184462010937Q1973.4236663077895 538.3972547134179 1976.1155333777547 546.129213318637Q1978.778763563997 553.8611719238561 1984.1338608202045 558.5003470869875Q1989.5175949601344 563.139522250119 1997.1350060304617 563.139522250119L1997.1350060304617 563.139522250119Q2004.351500728666 563.139522250119 2010.5370676128414 559.1303585288942Q2016.7226344970168 555.0925579239465 2021.5622678462096 548.70653285371Q2026.401901195402 542.3205077834734 2029.2942264514286 535.189923736438Q2032.1865517074552 528.0879765731256 2032.3870098935163 522.1028678750116L2032.3870098935163 522.1028678750116L2035.2793351495425 440.86002875276483Q2035.0788769634814 440.6595705667036 2034.3629548704057 440.7741181015958Q2033.6183958936067 440.86002875276483 2031.556540265548 441.8909565667941L2031.556540265548 441.8909565667941Q2023.3091177533147 446.2437628926952 2017.9540204971072 440.25865419458114L2017.9540204971072 440.25865419458114Q2021.247262125256 437.9963403804615 2026.201443009341 434.58855121742045Q2031.1556238934259 431.18076205437944 2035.5943408704961 428.288436798353Q2040.0330578475664 425.39611154232665 2041.4649020337179 424.99519517020417L2041.4649020337179 424.99519517020417Q2044.3572272897445 423.96426735617496 2046.4190829178028 424.99519517020417Q2048.480938545861 426.0261229842334 2048.2804803598 428.71799005419854L2048.2804803598 428.71799005419854L2043.7272158478377 555.0925579239465Q2043.5267576617762 557.5839668078504 2044.4431379409134 559.731733087078Q2045.3881551037734 561.9081362500285 2048.6813967319226 561.9081362500285L2048.6813967319226 561.9081362500285Q2050.743252359981 561.9081362500285 2054.0364939881297 560.0467388080314Q2057.3297356162784 558.1853413660342 2059.8211445001825 554.8920997378852L2059.8211445001825 554.8920997378852Q2060.852072314212 553.4602555517336 2062.2839165003634 553.8611719238561Q2063.744397570238 554.2620882959785 2063.3148443143928 556.3239439240369L2063.3148443143928 556.3239439240369Q2062.0834583143023 562.7386058779965 2056.4133553371416 568.1796137853729Q2050.743252359981 573.6492585764724 2043.1258412896536 573.6492585764724L2043.1258412896536 573.6492585764724Q2036.9402744054787 573.6492585764724 2033.847490963391 569.6400948552476Q2030.7547075213033 565.6022942502999 2030.9551657073648 560.6767502499381L2030.9551657073648 560.6767502499381L2031.556540265548 543.9528101556864Q2028.692851893245 550.7683884817684 2023.3091177533147 557.3548717380662Q2017.9540204971072 563.969991878087 2010.7375257989024 568.4087088551572Q2003.521031100698 572.8187889485044 1994.4431389604965 572.8187889485044ZM2106.814270689681 573.6492585764724L2106.814270689681 573.6492585764724Q2098.165931805325 573.6492585764724 2090.3194256652137 568.8096252272796Q2082.5015564088253 563.969991878087 2077.5473755247403 554.6916415518241Q2072.593194640656 545.4132912255611 2072.593194640656 532.4121460153037L2072.593194640656 532.4121460153037Q2072.593194640656 520.8714818749212 2076.8314534316646 509.8462816415532Q2081.0410753389506 498.8210814081852 2088.486665106939 489.9436474540447Q2095.903617991205 481.0662134999043 2105.697432224483 475.71111624369695Q2115.49124645776 470.3560189874896 2126.8314524120815 470.3560189874896L2126.8314524120815 470.3560189874896Q2138.3721165524644 470.3560189874896 2146.1040751576834 474.1647245226531Q2153.8360337629024 477.97343005781664 2156.92881720499 481.29530856968853L2156.92881720499 481.29530856968853L2154.4660452048092 555.0925579239465Q2154.236950135025 557.5839668078504 2155.181967297885 559.731733087078Q2156.098347577022 561.9081362500285 2159.391589205171 561.9081362500285L2159.391589205171 561.9081362500285Q2161.4534448332292 561.9081362500285 2164.660775810209 560.0467388080314Q2167.868106787189 558.1853413660342 2170.33087878737 554.8920997378852L2170.33087878737 554.8920997378852Q2171.361806601399 553.4602555517336 2172.908198322443 553.8611719238561Q2174.454590043487 554.2620882959785 2174.0536736713643 556.3239439240369L2174.0536736713643 556.3239439240369Q2172.7936507875506 562.7386058779965 2167.12354781039 568.1796137853729Q2161.4534448332292 573.6492585764724 2153.8360337629024 573.6492585764724L2153.8360337629024 573.6492585764724Q2147.650466878727 573.6492585764724 2144.5576834366393 569.6400948552476Q2141.4648999945516 565.6022942502999 2141.665358180613 560.6767502499381L2141.665358180613 560.6767502499381L2142.495827808581 539.2277243413857Q2140.233513994461 547.0455935977741 2135.2793331103767 555.0925579239465Q2130.3251522262917 563.139522250119 2123.1086575280874 568.4087088551572Q2115.8921628298826 573.6492585764724 2106.814270689681 573.6492585764724ZM2087.6561954789713 532.612604201365L2087.6561954789713 532.612604201365Q2087.6561954789713 540.258652155415 2090.118967479152 547.3605993187274Q2092.6103763630563 554.4911833657628 2097.535920363418 559.0158109940021Q2102.490101247503 563.5404386222415 2109.506137759646 563.5404386222415L2109.506137759646 563.5404386222415Q2115.8921628298826 563.5404386222415 2121.6768133419355 559.0158109940021Q2127.432826970265 554.4911833657628 2132.072002133397 547.1601411326662Q2136.711177296528 539.8290988995695 2139.603502552555 531.3812182012746Q2142.495827808581 522.9333375029796 2142.8967441807035 515.0868313628683L2142.8967441807035 515.0868313628683L2143.7272138086714 496.75922578012677Q2143.927671994733 493.4373472682548 2143.641303157502 491.3754916401964Q2143.326297436549 489.313636012138 2142.29536962252 487.68133363992507L2142.29536962252 487.68133363992507Q2140.0330558084 483.95853875593065 2135.2793331103767 481.29530856968853Q2130.5256104123528 478.6034414997234 2124.5691385979617 478.6034414997234L2124.5691385979617 478.6034414997234Q2115.8921628298826 478.6034414997234 2108.9906738526315 483.75808056986943Q2102.0891848753804 488.9127196400155 2097.335462177357 497.16014215224925Q2092.6103763630563 505.40756466448295 2090.118967479152 514.8004625256381Q2087.6561954789713 524.16472350307 2087.6561954789713 532.612604201365Z " fill="#E2V144" transform="matrix(0.40245871523456,0,0,0.40245871523455995,0,98.98002019384948)"/></g></svg>